<svg xmlns="http://www.w3.org/2000/svg" viewBox="0 0 70 110" width="70" height="110">
  <circle cx="35" cy="22" r="14" fill="#fed7aa"/>
  <path d="M 21 22 Q 35 6 49 22 Q 45 10 35 10 Q 25 10 21 22 Z" fill="#92400e"/>
  <!-- Golden laurel wreath on head -->
  <path d="M 22 14 Q 35 8 48 14" stroke="#fbbf24" stroke-width="3" fill="none"/>
  <circle cx="30" cy="21" r="2" fill="#0f172a"/>
  <circle cx="40" cy="21" r="2" fill="#0f172a"/>
  <path d="M 29 27 Q 35 34 41 27" stroke="#0f172a" stroke-width="2" fill="none"/>
  <!-- Formal navy suit -->
  <path d="M 18 38 L 52 38 L 54 82 L 16 82 Z" fill="#1e1b4b"/>
  <!-- Red Imperial Ribbon & Gold Demidov Medal -->
  <line x1="28" y1="38" x2="35" y2="52" stroke="#dc2626" stroke-width="2.5"/>
  <line x1="42" y1="38" x2="35" y2="52" stroke="#dc2626" stroke-width="2.5"/>
  <circle cx="35" cy="56" r="6" fill="#fbbf24" stroke="#d97706" stroke-width="1"/>
  <!-- Certificate of Honor in hand -->
  <rect x="50" y="52" width="16" height="24" rx="1" fill="#fef08a" stroke="#b45309" stroke-width="0.8"/>
  <line x1="53" y1="58" x2="63" y2="58" stroke="#b45309" stroke-width="0.8"/>
  <line x1="53" y1="63" x2="63" y2="63" stroke="#b45309" stroke-width="0.8"/>
  <line x1="53" y1="68" x2="60" y2="68" stroke="#b45309" stroke-width="0.8"/>
  <!-- Legs -->
  <line x1="26" y1="82" x2="26" y2="102" stroke="#0f172a" stroke-width="6"/>
  <line x1="44" y1="82" x2="44" y2="102" stroke="#0f172a" stroke-width="6"/>
  <ellipse cx="23" cy="104" rx="7" ry="4" fill="#0f172a"/>
  <ellipse cx="47" cy="104" rx="7" ry="4" fill="#0f172a"/>
</svg>