<svg xmlns="http://www.w3.org/2000/svg" viewBox="0 0 80 120" width="80" height="120">
  <!-- Head & Gray Hair -->
  <circle cx="40" cy="24" r="15" fill="#fed7aa"/>
  <path d="M 25 24 Q 40 6 55 24 Q 50 12 40 12 Q 30 12 25 24 Z" fill="#94a3b8"/>
  <!-- Gray Beard -->
  <path d="M 28 28 Q 40 44 52 28 Q 48 38 40 38 Q 32 38 28 28 Z" fill="#cbd5e1"/>
  <!-- Face details -->
  <circle cx="35" cy="22" r="2" fill="#1e293b"/>
  <circle cx="45" cy="22" r="2" fill="#1e293b"/>
  <path d="M 36 28 Q 40 30 44 28" stroke="#1e293b" stroke-width="1" fill="none"/>
  <!-- 19th Century Dark Blue Merchant Caftan -->
  <path d="M 20 40 L 60 40 L 66 95 L 14 95 Z" fill="#1e3a8a"/>
  <!-- Velvet lapels with gold trim -->
  <polygon points="32,40 40,60 48,40" fill="#1e293b"/>
  <line x1="32" y1="40" x2="40" y2="60" stroke="#f59e0b" stroke-width="1"/>
  <line x1="48" y1="40" x2="40" y2="60" stroke="#f59e0b" stroke-width="1"/>
  <!-- Brass hand telescope in right hand -->
  <polygon points="62,60 76,40 78,43 64,63" fill="#f59e0b" stroke="#b45309" stroke-width="1"/>
  <rect x="74" y="38" width="5" height="4" rx="1" fill="#fef08a"/>
  <!-- Book 'Затмения' in left hand -->
  <rect x="8" y="65" width="18" height="24" rx="1" fill="#78350f" stroke="#f59e0b" stroke-width="1"/>
  <line x1="12" y1="72" x2="22" y2="72" stroke="#fef08a" stroke-width="1"/>
  <line x1="12" y1="77" x2="22" y2="77" stroke="#fef08a" stroke-width="1"/>
  <!-- Boots -->
  <line x1="30" y1="95" x2="30" y2="114" stroke="#0f172a" stroke-width="7"/>
  <line x1="50" y1="95" x2="50" y2="114" stroke="#0f172a" stroke-width="7"/>
  <ellipse cx="27" cy="115" rx="8" ry="4" fill="#0f172a"/>
  <ellipse cx="53" cy="115" rx="8" ry="4" fill="#0f172a"/>
</svg>