<svg xmlns="http://www.w3.org/2000/svg" viewBox="0 0 70 110" width="70" height="110">
  <circle cx="35" cy="22" r="13" fill="#fbcfe8"/>
  <path d="M 22 22 Q 35 8 48 22 Q 44 12 35 12 Q 26 12 22 22 Z" fill="#451a03"/>
  <!-- Brass spectacles -->
  <circle cx="30" cy="21" r="3.2" fill="none" stroke="#f59e0b" stroke-width="1.2"/>
  <circle cx="40" cy="21" r="3.2" fill="none" stroke="#f59e0b" stroke-width="1.2"/>
  <line x1="33.2" y1="21" x2="36.8" y2="21" stroke="#f59e0b" stroke-width="1"/>
  <!-- Velvet dark coat with copper buttons -->
  <path d="M 18 38 L 52 38 L 56 84 L 14 84 Z" fill="#1e1b4b" stroke="#64748b" stroke-width="0.8"/>
  <circle cx="35" cy="52" r="1.5" fill="#f59e0b"/>
  <circle cx="35" cy="64" r="1.5" fill="#f59e0b"/>
  <!-- Celestial chart in hand -->
  <rect x="4" y="60" width="14" height="20" rx="1" fill="#fef08a" stroke="#b45309" stroke-width="0.8"/>
  <!-- Boots -->
  <line x1="26" y1="84" x2="26" y2="102" stroke="#0f172a" stroke-width="6"/>
  <line x1="44" y1="84" x2="44" y2="102" stroke="#0f172a" stroke-width="6"/>
  <ellipse cx="23" cy="104" rx="7" ry="4" fill="#3f1a08"/>
  <ellipse cx="47" cy="104" rx="7" ry="4" fill="#3f1a08"/>
</svg>