<svg xmlns="http://www.w3.org/2000/svg" viewBox="0 0 80 120" width="80" height="120">
  <circle cx="40" cy="24" r="14" fill="#fed7aa"/>
  <path d="M 26 24 Q 40 8 54 24 Q 48 14 40 14 Q 32 14 26 24 Z" fill="#475569"/>
  <!-- Scholar round spectacles -->
  <circle cx="35" cy="23" r="3.2" fill="none" stroke="#0f172a" stroke-width="1.2"/>
  <circle cx="45" cy="23" r="3.2" fill="none" stroke="#0f172a" stroke-width="1.2"/>
  <line x1="38.2" y1="23" x2="41.8" y2="23" stroke="#0f172a" stroke-width="1"/>
  <!-- Academician Suit -->
  <path d="M 20 40 L 60 40 L 64 92 L 16 92 Z" fill="#0f172a" stroke="#334155" stroke-width="1"/>
  <!-- Electromagnetic Variometer Instrument -->
  <rect x="58" y="58" width="18" height="22" rx="2" fill="#1e293b" stroke="#38bdf8" stroke-width="1"/>
  <circle cx="67" cy="69" r="6" fill="#0f172a" stroke="#f59e0b" stroke-width="0.8"/>
  <line x1="67" y1="65" x2="67" y2="73" stroke="#ef4444" stroke-width="1.5"/>
  <!-- Legs -->
  <line x1="30" y1="92" x2="30" y2="114" stroke="#0f172a" stroke-width="7"/>
  <line x1="50" y1="92" x2="50" y2="114" stroke="#0f172a" stroke-width="7"/>
  <ellipse cx="27" cy="115" rx="8" ry="4" fill="#020617"/>
  <ellipse cx="53" cy="115" rx="8" ry="4" fill="#020617"/>
</svg>